<?xml version="1.0" encoding="utf-8"?>
<!-- Generator: Adobe Illustrator 17.0.0, SVG Export Plug-In . SVG Version: 6.00 Build 0)  -->
<!DOCTYPE svg PUBLIC "-//W3C//DTD SVG 1.1//EN" "http://www.w3.org/Graphics/SVG/1.1/DTD/svg11.dtd">
<svg version="1.1" id="图层_1" xmlns="http://www.w3.org/2000/svg" xmlns:xlink="http://www.w3.org/1999/xlink" x="0px" y="0px"
	 width="480px" height="120px" viewBox="0 0 480 120" enable-background="new 0 0 480 120" xml:space="preserve">
<path fill="#FFFFFF" d="M53.879,26.497c0,0,22.467,15.585,19.827,37.013c0,0,7.54-1.948,5.515-14.839
	c0,0,10.879,10.863,10.695,20.683c-0.151,7.979-9.798,19.481-27.942,19.481c0,0,16.361-15.143-5.257-34.304
	c0,0-19.996,20.416-6.801,34.304c0,0-26.607-7.005-18.802-24.545C38.92,46.746,55.993,45.197,53.879,26.497z"/>
<path fill="#FFFFFF" d="M120,59.833c0,33.045-26.863,59.833-60,59.833S0,92.878,0,59.833S26.863,0,60,0S120,26.788,120,59.833z
	 M60,10.845c-27.614,0-50,22.324-50,49.861s22.386,49.861,50,49.861s50-22.324,50-49.861S87.614,10.845,60,10.845z"/>
<path fill="#FFFFFF" d="M240,60.167C240,93.212,213.137,120,180,120s-60-26.788-60-59.833s26.863-59.833,60-59.833
	S240,27.122,240,60.167z M180,11.178c-27.614,0-50,22.324-50,49.861s22.386,49.861,50,49.861s50-22.324,50-49.861
	S207.614,11.178,180,11.178z"/>
<path fill="#FFFFFF" d="M360,60.167C360,93.212,333.137,120,300,120s-60-26.788-60-59.833s26.863-59.833,60-59.833
	S360,27.122,360,60.167z M300,11.178c-27.614,0-50,22.324-50,49.861s22.386,49.861,50,49.861s50-22.324,50-49.861
	S327.614,11.178,300,11.178z"/>
<path fill="#FFFFFF" d="M480,60.167C480,93.212,453.137,120,420,120s-60-26.788-60-59.833s26.863-59.833,60-59.833
	S480,27.122,480,60.167z M420,11.178c-27.614,0-50,22.324-50,49.861s22.386,49.861,50,49.861s50-22.324,50-49.861
	S447.614,11.178,420,11.178z"/>
<g>
	<g>
		<path fill="#FFFFFF" d="M280.136,68.39c0,0-1.881-0.555-2.575,0.368c-0.694,0.923-0.768,2.174-0.368,2.575
			c0.4,0.4,8.827,9.195,8.827,9.195s-0.181,0-1.839,0c-1.658,0-13.241-12.138-13.241-12.138s0.023-11.432,0-14.344
			c-0.023-2.825-3.31-2.942-3.31-2.942s-1.608,1.046-2.207,2.207c-0.599,1.161-0.315,14.791,0,17.655
			c0.315,2.863,17.313,19.752,18.39,21.701c1.077,1.949,0.368,3.31,0.368,3.31h12.505c0,0,1.51-9.619,0.736-12.138
			S280.136,68.39,280.136,68.39z M334.339,53.31c-0.601-1.161-2.213-2.207-2.213-2.207s-3.297,0.118-3.32,2.942
			c-0.023,2.912,0,14.344,0,14.344s-11.617,12.138-13.28,12.138c-1.663,0-1.844,0-1.844,0s8.452-8.795,8.853-9.195
			c0.401-0.4,0.327-1.652-0.369-2.575c-0.696-0.923-2.582-0.368-2.582-0.368s-16.562,12.929-17.338,15.448
			s0.738,12.138,0.738,12.138h12.542c0,0-0.711-1.361,0.369-3.31c1.08-1.949,18.129-18.837,18.445-21.701
			C334.654,68.101,334.939,54.471,334.339,53.31z M307.98,68.757v-11.75l9.885,8.658l4.568-4.269l-11.364-9.955h9.267v-5.566H307.98
			v-4.329h8.649V26.085h-22.859v15.461h8.031v4.329h-11.738v5.566h9.267l-10.298,11.501c0,0,3.988,2.962,4.634,3.865l8.135-9.801
			v11.75H307.98z M299.949,36.599v-5.566h10.503v5.566H299.949z M282.662,44.622v23.732h5.792V38.205l1.931-5.605l2.51-6.764
			l-7.336-2.319c0,0-1.221,5.437-3.806,11.158c-2.87,6.352-7.134,13.055-7.134,13.055l5.341,3.037L282.662,44.622z"/>
	</g>
</g>
<g>
	<path fill="#FFFFFF" d="M386.234,48.871v-7.2c3.332-0.149,5.664-0.371,6.997-0.668c2.122-0.47,3.85-1.41,5.183-2.821
		c0.913-0.965,1.603-2.251,2.073-3.86c0.271-0.965,0.408-1.682,0.408-2.153h8.833v53.814h-10.838V48.871H386.234z"/>
	<path fill="#FFFFFF" d="M455.641,74.405h-6.086v11.579H439.2V74.405h-21.303v-9.241l19.782-32.66h11.876v33.625h6.086V74.405z
		 M439.2,66.129V45.826l-11.765,20.303H439.2z"/>
</g>
<g>
	<path fill="#FFFFFF" d="M204.782,32.425l-17.345,21.508h13.667v6.521h-15.924v7.986h15.924v6.603h-15.924v15.082h-8.192V75.044
		h-16.509V68.44h16.509v-7.986h-16.509v-6.521h14.086l-17.178-21.508h9.236l14.796,18.878l14.629-18.878H204.782z"/>
</g>
</svg>
